<svg xmlns="http://www.w3.org/2000/svg" viewBox="0 0 800 800"><defs><style>.cls-1{fill:#bbd0d5;}.cls-1,.cls-11,.cls-13,.cls-14,.cls-2,.cls-21,.cls-22,.cls-23,.cls-24,.cls-25,.cls-26,.cls-27,.cls-28,.cls-29,.cls-3,.cls-30,.cls-31,.cls-32,.cls-33,.cls-34,.cls-4,.cls-45,.cls-46,.cls-47,.cls-48,.cls-49,.cls-5,.cls-50,.cls-51,.cls-52,.cls-53,.cls-54,.cls-55,.cls-56,.cls-57,.cls-58,.cls-59,.cls-60,.cls-61,.cls-62,.cls-63,.cls-64,.cls-65,.cls-66,.cls-67,.cls-68,.cls-69,.cls-70,.cls-71,.cls-72,.cls-73,.cls-74,.cls-75,.cls-76,.cls-77,.cls-78,.cls-79,.cls-8{stroke:#000;}.cls-1,.cls-11,.cls-13,.cls-14,.cls-2,.cls-21,.cls-22,.cls-23,.cls-24,.cls-25,.cls-26,.cls-27,.cls-28,.cls-29,.cls-3,.cls-30,.cls-31,.cls-32,.cls-33,.cls-34,.cls-4,.cls-45,.cls-46,.cls-47,.cls-48,.cls-49,.cls-5,.cls-50,.cls-51,.cls-52,.cls-53,.cls-54,.cls-55,.cls-56,.cls-57,.cls-58,.cls-59,.cls-60,.cls-61,.cls-62,.cls-63,.cls-64,.cls-65,.cls-66,.cls-67,.cls-68,.cls-69,.cls-70,.cls-71,.cls-72,.cls-73,.cls-74,.cls-75,.cls-76,.cls-77,.cls-78,.cls-79{stroke-miterlimit:10;}.cls-1,.cls-2,.cls-3,.cls-4,.cls-5{stroke-width:2px;}.cls-2{fill:#457899;}.cls-3{fill:#68544f;}.cls-4{fill:#ffa64d;}.cls-5{fill:#f73;}.cls-6{fill:#fff503;}.cls-7{fill:#089b40;}.cls-8{fill:none;stroke-linecap:round;stroke-linejoin:round;stroke-width:7px;}.cls-9{font-size:90px;}.cls-12,.cls-9{font-family:Calibri-Bold, Calibri;font-weight:700;}.cls-10{letter-spacing:-0.01em;}.cls-11,.cls-27,.cls-50{fill:#fff;}.cls-11{stroke-width:4px;}.cls-12{font-size:45px;}.cls-13{fill:#bd334e;}.cls-13,.cls-14,.cls-21,.cls-22,.cls-23,.cls-24,.cls-25,.cls-26,.cls-27,.cls-28,.cls-29,.cls-30,.cls-31,.cls-32,.cls-33,.cls-34{stroke-width:0.5px;}.cls-14{fill:#602b2b;}.cls-15,.cls-46{fill:#2d2d2d;}.cls-16{fill:#1e1e1e;}.cls-17{fill:#545454;}.cls-18{fill:#3e3c3a;}.cls-19{fill:#b77f0f;}.cls-20{fill:#dfa422;}.cls-21{fill:#292a43;}.cls-22{fill:#3b415b;}.cls-23,.cls-41{fill:#b71c2b;}.cls-24,.cls-35{fill:#961941;}.cls-25{fill:#1b1b54;}.cls-26{fill:#474441;}.cls-28{fill:#595959;}.cls-29{fill:#4b9a34;}.cls-30{fill:#262626;}.cls-31{fill:#c68d00;}.cls-32{fill:#e2a803;}.cls-33{fill:#fcc005;}.cls-34{fill:#b5235e;}.cls-36{fill:#3964a2;}.cls-37{fill:#547dbf;}.cls-38{fill:#a6ceef;}.cls-39{fill:#3466a3;}.cls-40{fill:#75a4d8;}.cls-42{fill:#497ebd;}.cls-43{fill:#6599cb;}.cls-44{fill:#afd3f1;}.cls-45{fill:#bc853b;}.cls-45,.cls-46,.cls-47,.cls-52,.cls-53,.cls-54,.cls-55,.cls-56,.cls-57,.cls-58,.cls-59,.cls-60,.cls-61,.cls-62,.cls-63,.cls-64,.cls-65,.cls-66,.cls-67,.cls-68,.cls-69,.cls-70,.cls-71,.cls-72,.cls-73,.cls-74,.cls-75,.cls-76,.cls-77,.cls-78,.cls-79{stroke-width:0.75px;}.cls-47{fill:#111;}.cls-48{fill:#633b0f;}.cls-49{fill:#d1d1d1;}.cls-52{fill:#fbd116;}.cls-53{fill:#fad016;}.cls-54{fill:#fee265;}.cls-55{fill:#fad116;}.cls-56{fill:#f9d016;}.cls-57,.cls-83{fill:#f8d016;}.cls-58,.cls-80{fill:#f7d016;}.cls-59{fill:#f7cf16;}.cls-60,.cls-82{fill:#f6cf16;}.cls-61{fill:#f9b239;}.cls-62{fill:#008f4c;}.cls-63{fill:#f1af97;}.cls-64{fill:#ed1c24;}.cls-65{fill:#6d5600;}.cls-66{fill:#8e5214;}.cls-67{fill:#769e00;}.cls-68{fill:#008e4c;}.cls-69{fill:#e91c24;}.cls-70{fill:#ea1c24;}.cls-71{fill:#8dbe00;}.cls-72{fill:#8ebf00;}.cls-73{fill:#e81c24;}.cls-74{fill:#6e2e2e;}.cls-75{fill:#6d2e2e;}.cls-76{fill:#008d4b;}.cls-77,.cls-85{fill:#f0cb15;}.cls-78,.cls-86{fill:#eaca15;}.cls-79{fill:#070a00;}.cls-81{fill:#f3ce16;}.cls-84{fill:#e7bf02;}</style></defs><g id="Antorcha"><path class="cls-1" d="M380.27,211.1l10.08,68.45s9.51,14.86,19.08,0l10.08-68.45Z"/><rect class="cls-2" x="371.52" y="199.16" width="56.53" height="11.94"/><polygon class="cls-3" points="355.6 183.24 355.6 191.22 371.52 199.16 428.05 199.16 444 191.2 444 183.24 355.6 183.24"/><path class="cls-4" d="M373.11,183.24s-20.69-23.35,5.31-52c0,0-4.78,11.14,2.12,14.86,0,0,1.59,1.06,4.77,0s1.6-5.84,2.13-19.63c0,0,.53-9.56,8.49-14.33,0,0,10.08-3.19,11.67-10.08A15.46,15.46,0,0,0,406,88.79s11.67,4.25,12.2,15.92c0,0,.53,9-5.3,14.86,0,0-6.9,6.36-8,12.2,0,0-.53,10.61,9,11.14,0,0,8.49,1.6,12.2-13.79,0,0,18.49,31.84,1.21,54.12Z"/><path class="cls-5" d="M380.89,183.24s-6.19-12.73,6.55-23.35c0,0,0,11.68,6.36,12.21,0,0,12.21-2.12,8.49-22.82,0,0,22.86,16.45,17.53,34Z"/></g><g id="Escudo"><g id="Escudo-2" data-name="Escudo"><path class="cls-6" d="M135.25,219.8s105,97,264.5,0V627S135.25,520.8,135.25,219.8Z"/><path class="cls-7" d="M664.75,219.8s-105,97-264.5,0V627S664.75,520.8,664.75,219.8Z"/><path class="cls-8" d="M399.75,219.8c-159.5,97-264.5,0-264.5,0,0,301,264.5,407.15,264.5,407.15S664.25,520.8,664.25,219.8C664.25,219.8,559.25,316.8,399.75,219.8Z"/></g><text class="cls-9" transform="translate(92.86 238.01) rotate(-52.59)">U</text><text class="cls-9" transform="matrix(0.72, -0.69, 0.69, 0.72, 127.1, 192.93)">N</text><text class="cls-9" transform="translate(169.41 153.71) rotate(-37.44)">I</text><text class="cls-9" transform="matrix(0.85, -0.52, 0.52, 0.85, 186.71, 139.27)">D</text><text class="cls-9" transform="matrix(0.92, -0.39, 0.39, 0.92, 231.58, 111.69)">A</text><text class="cls-9" transform="matrix(0.97, -0.25, 0.25, 0.97, 279.73, 90.79)">D</text><text class="cls-9" transform="translate(333.36 77.57) rotate(-8.87)"> </text><text class="cls-9" transform="translate(352.18 74.08) rotate(-4.03)">E</text><text class="cls-9" transform="translate(394.14 70.58) rotate(3.48)">D</text><text class="cls-9" transform="matrix(0.98, 0.21, -0.21, 0.98, 448.67, 73.65)">U</text><text class="cls-9" transform="translate(504.09 85.91) rotate(20.33)">C</text><text class="cls-9" transform="translate(547.14 101.47) rotate(28.1)">A</text><text class="cls-9" transform="matrix(0.82, 0.57, -0.57, 0.82, 587.73, 122.91)">T</text><text class="cls-9" transform="matrix(0.77, 0.64, -0.64, 0.77, 623.14, 147.77)">I</text><text class="cls-9" transform="translate(641.02 161.56) rotate(45.51)">V</text><text class="cls-9" transform="matrix(0.6, 0.8, -0.8, 0.6, 674.04, 194.5)">A</text><text class="cls-9" transform="translate(166.36 772.83)">“MOC<tspan class="cls-10" x="226.32" y="0">A</tspan><tspan x="279.8" y="0">CHE”</tspan></text><g id="Lazo_izq" data-name="Lazo izq"><path id="Lazo_izq-2" data-name="Lazo izq" class="cls-11" d="M353.83,647.67S122.74,554.93,92.57,297L79,342,56.57,327C86.74,584.93,317.83,677.67,317.83,677.67L311,649Z"/><text class="cls-12" transform="translate(107.44 467.21) rotate(61.14)">C</text><text class="cls-12" transform="matrix(0.52, 0.85, -0.85, 0.52, 120.67, 490.72)">i</text><text class="cls-12" transform="translate(128.06 502.83) rotate(55.65)">e</text><text class="cls-12" transform="translate(142.84 524.3) rotate(52.12)">n</text><text class="cls-12" transform="translate(159.82 545.85) rotate(48.93)">c</text><text class="cls-12" transform="translate(174.24 562.2) rotate(46.68)">i</text><text class="cls-12" transform="translate(183.88 572.5) rotate(44.26)">a</text></g><g id="Lazo_der" data-name="Lazo der"><path id="Lazo_izq-3" data-name="Lazo izq" class="cls-11" d="M446.57,647.67S677.66,554.93,707.83,297l13.57,45,22.43-15C713.66,584.93,482.57,677.67,482.57,677.67L489.4,649Z"/><text class="cls-12" transform="matrix(0.77, -0.64, 0.64, 0.77, 571.28, 609.56)">T</text><text class="cls-12" transform="translate(587.76 595.79) rotate(-42.53)">e</text><text class="cls-12" transform="translate(606.72 578.23) rotate(-45.43)">c</text><text class="cls-12" transform="matrix(0.66, -0.75, 0.75, 0.66, 622.23, 562.47)">n</text><text class="cls-12" transform="translate(640.41 541.75) rotate(-52.05)">o</text><text class="cls-12" transform="matrix(0.58, -0.82, 0.82, 0.58, 657.01, 520.09)">l</text><text class="cls-12" transform="translate(665.3 508.5) rotate(-57.56)">o</text><text class="cls-12" transform="matrix(0.48, -0.88, 0.88, 0.48, 679.97, 485.13)">g</text><text class="cls-12" transform="translate(691.61 463.63) rotate(-63.77)">í</text><text class="cls-12" transform="translate(697.94 450.92) rotate(-66.5)">a</text></g><g id="Banda_inf" data-name="Banda inf"><path class="cls-11" d="M529,667.5a416.25,416.25,0,0,1-258,0S257,662,257,638s14-19.5,14-19.5a416.25,416.25,0,0,0,258,0s15-7.5,15,17.5S529,667.5,529,667.5Z"/><text class="cls-12" transform="translate(307.14 665.32) rotate(10.98)">D</text><text class="cls-12" transform="translate(335.94 670.67) rotate(8.11)">i</text><text class="cls-12" transform="translate(347.57 672.38) rotate(6.01)">s</text><text class="cls-12" transform="matrix(1, 0.06, -0.06, 1, 366.28, 674.34)">c</text><text class="cls-12" transform="translate(385.77 675.4) rotate(1.23)">i</text><text class="cls-12" transform="translate(397.64 675.78) rotate(-1.27)">p</text><text class="cls-12" transform="translate(422.59 675.07) rotate(-3.78)">l</text><text class="cls-12" transform="translate(434.15 674.29) rotate(-5.38)">i</text><text class="cls-12" transform="matrix(0.99, -0.14, 0.14, 0.99, 445.99, 673.31)">n</text><text class="cls-12" transform="translate(470.99 669.77) rotate(-11.29)">a</text></g></g><g id="Capa_8" data-name="Capa 8"><g id="Tractor"><g id="Cubierta_neumatico_derecho" data-name="Cubierta neumatico derecho"><path class="cls-13" d="M313.46,404l19.35,1.23s9.46-7.19,14.44,12.16l.79,0s-2.55-11.86-9.12-14.89c0,0-6.12-2.63-18.14-2.18C320.78,400.39,313.38,401.7,313.46,404Z"/><path class="cls-14" d="M347.25,417.42c-5-19.35-14.44-12.16-14.44-12.16l-7.71-.49s7.7,4.3,8.22,10.77Z"/></g><g id="Llanta_1" data-name="Llanta 1"><g id="Neumático"><path class="cls-15" d="M335.72,451.24c-6.86,0-12.43-9.93-12.43-22.18s5.57-22.18,12.43-22.18H318.4c-6.87,0-12.43,9.93-12.43,22.18s5.56,22.18,12.43,22.18Z"/><path class="cls-16" d="M326.45,451.24c-6.86,0-12.43-9.93-12.43-22.18s5.57-22.18,12.43-22.18H318.4c-6.87,0-12.43,9.93-12.43,22.18s5.56,22.18,12.43,22.18Z"/><rect class="cls-17" x="319.28" y="448.18" width="9.99" height="2.25" rx="1.03" transform="translate(-164.78 188.82) rotate(-26.14)"/><rect class="cls-17" x="314.45" y="442.58" width="12.22" height="2.25" rx="1.03" transform="translate(-162.7 186.62) rotate(-26.14)"/><rect class="cls-17" x="312.87" y="434.59" width="12.22" height="2.25" rx="1.03" transform="translate(-175.12 217.87) rotate(-30)"/><rect class="cls-17" x="312.41" y="426.49" width="12.22" height="2.25" rx="1.03" transform="translate(-155.82 184.07) rotate(-26.14)"/><path class="cls-17" d="M325.46,417.48l-9.57,4.7c-.85.19-1.31,0-1.5-.35l-.38-.77a.78.78,0,0,1,.36-1.05l9.57-4.69a.78.78,0,0,1,1,.35l.38.77C325.55,416.83,325.39,417.29,325.46,417.48Z"/><rect class="cls-17" x="317.47" y="410.36" width="12.22" height="2.23" rx="1.03" transform="matrix(0.97, -0.25, 0.25, 0.97, -93.46, 95.1)"/><rect class="cls-17" x="309.9" y="448.27" width="8.03" height="2.56" rx="1.18" transform="translate(190.64 -84.72) rotate(21.93)"/><rect class="cls-17" x="306.53" y="440.63" width="8.46" height="2.56" rx="1.18" transform="translate(154.78 -75.32) rotate(18.33)"/><rect class="cls-17" x="303.76" y="430.57" width="10.17" height="2.56" rx="1.18" transform="matrix(0.87, 0.5, -0.5, 0.87, 257.3, -96.57)"/><rect class="cls-17" x="305.09" y="421.91" width="9.94" height="2.56" rx="1.18" transform="translate(291.35 -101.1) rotate(34.19)"/><rect class="cls-17" x="308.3" y="413.4" width="8.09" height="2.46" rx="1.13" transform="translate(222.61 -96.67) rotate(27.04)"/><rect class="cls-17" x="314.2" y="407.55" width="5.07" height="1.94" rx="0.89" transform="translate(284.26 -107.38) rotate(34.19)"/><path class="cls-17" d="M333.94,407.26l-10.58,1.3c-.66.05-1.05-.25-1.1-.68h0a.78.78,0,0,1,.68-.87l10.58-1.29a.77.77,0,0,1,.87.67h0A.86.86,0,0,1,333.94,407.26Z"/><ellipse class="cls-17" cx="335.49" cy="429.06" rx="12.43" ry="22.18"/><ellipse class="cls-18" cx="336.83" cy="429.68" rx="8.51" ry="15.18"/></g><g id="Aro"><ellipse class="cls-19" cx="336.83" cy="429.69" rx="7.8" ry="13.92"/><ellipse class="cls-20" cx="336.8" cy="429.74" rx="5.61" ry="10"/></g></g><g id="Motor"><g id="Escape"><rect class="cls-21" x="354.34" y="360.12" width="7.21" height="28.96" transform="translate(18.24 -16.62) rotate(2.73)"/><path class="cls-22" d="M355,360a5.36,5.36,0,0,0,2.56-3.63l.76-9.87a5.09,5.09,0,0,1,2.79-3.23l2.39-.74a1.51,1.51,0,0,1,1.64,1s.51,1.05-.18,1.63l-2.69,1s-1,.25-1.53,2.53l-.59,8a6,6,0,0,0,2.06,3.62A9.3,9.3,0,0,1,355,360Z"/></g><path class="cls-23" d="M363.06,400.85l-1,18.28a8.65,8.65,0,0,1-4.4,0h0l-18.8-2.89s.33-11.88.89-13.95a22.16,22.16,0,0,1,.95-4.68,4.1,4.1,0,0,1,3.73-2.07l.6,0,1.36.12c4.68.44,11.08,1.05,13,1.36s3.6.6,3.64,3.8"/><path class="cls-13" d="M392.72,381.3a24,24,0,0,0-10.17-1.9A49.66,49.66,0,0,0,370.68,381c-6.68,1.69-20.22,7.27-24.31,9.4-2.84,1.49-4.56,3.09-5.63,7.25a4.1,4.1,0,0,1,3.73-2.07l.6,0,1.36.12c4.68.44,11.08,1.05,13,1.36s3.6.6,3.64,3.8c.62-1.5,2.47-4.63,7.58-6.76,5.9-2.47,21.9-7.79,26.93-9.45C396.88,383.56,395.49,382.61,392.72,381.3Z"/><path class="cls-24" d="M398.59,390.15c0-.51,0-1,0-1.43,0-1.8-.06-3-.68-4.07a.13.13,0,0,0-.16-.06c-4.84,1.6-21.12,7-27.08,9.5-6.9,2.88-7.86,7.57-7.87,7.63-.17,2.52-.55,10.09-.67,17.41a.11.11,0,0,0,.06.1.11.11,0,0,0,.07,0h0l36.78-12.88a.13.13,0,0,0,.09-.12C399,402.5,398.71,393.44,398.59,390.15Z"/><path class="cls-25" d="M362.54,437.65l-31.87-4.88a2,2,0,0,1-1.74-2.21l.2-1.59a2.06,2.06,0,0,1,2.38-1.73l31.82,4.87a2,2,0,0,1,1.75,2.15l-.15,1.6A2.06,2.06,0,0,1,362.54,437.65Z"/><path class="cls-26" d="M362.05,431.82l.37.13c1.13.4.83,3.94.69,5.64v.15h.15a7.78,7.78,0,0,0,1.85-.31c1.39-.4,4.1-1.51,4.13-1.53l15.14-11.24Z"/><path class="cls-24" d="M362.59,431.81a107.4,107.4,0,0,1-.36-12.68L399,406.51l.4,13.18Z"/><path class="cls-13" d="M362.46,432h0c-.29,0-29.63-4.48-31.69-4.61a.14.14,0,0,1-.11-.07.12.12,0,0,1,0-.13c1.93-3.26,8-11,8.09-11.12a.13.13,0,0,1,.13,0c.13,0,13.5,2.48,19.66,3.15a12.65,12.65,0,0,0,3.68-.12.11.11,0,0,1,.11,0,.12.12,0,0,1,0,.1c-.08,5.5,0,9.77.23,12.68a.12.12,0,0,1,0,.11.13.13,0,0,1-.09,0"/><path d="M340,418.6l18.76,2.83a1.25,1.25,0,0,1,1.09,1.15l.41,6.25a1.26,1.26,0,0,1-1.45,1.3L335,426.84a1.23,1.23,0,0,1-.85-1.95l4.08-5.49A2.42,2.42,0,0,1,340,418.6Z"/></g><g id="Faro"><path class="cls-27" d="M345.85,410.51a32.24,32.24,0,0,1,0,4.11,1.54,1.54,0,0,1-1.53,1.56,13.87,13.87,0,0,1-3.16-.29c-1.14-.32-1.64-.38-1.61-2.19l.15-3.55s1.73,1.3,6.12.36"/><path class="cls-28" d="M345.85,410.51s0-5.74-2.53-8.85c0,0-1.54-2.37-2.51.57a71.24,71.24,0,0,0-1.08,7.92S341.84,411.53,345.85,410.51Z"/></g><g id="Faro-2" data-name="Faro"><path class="cls-27" d="M353.23,411.29a33.57,33.57,0,0,0-.49,4.35,1.63,1.63,0,0,0,1.44,1.81,14.83,14.83,0,0,0,3.38.05c1.24-.21,1.78-.22,1.95-2.14l.23-3.77s-2,1.18-6.51-.3"/><path class="cls-28" d="M353.23,411.29s.61-6.07,3.65-9.07c0,0,1.9-2.34,2.6.88a75.71,75.71,0,0,1,.26,8.49S357.36,412.82,353.23,411.29Z"/></g><g id="Cabina"><g id="Retrovisor"><rect class="cls-29" x="364.63" y="354.13" width="7.07" height="22.62" rx="3.25" transform="translate(28.84 -26.93) rotate(4.36)"/><path class="cls-30" d="M367.9,356.76l.34-4.32a1.42,1.42,0,0,1,1.37-1.35l9.12-.25v1.22l-9,.07a.54.54,0,0,0-.5.6l-.24,4.09S368.42,357.83,367.9,356.76Z"/><path class="cls-30" d="M366.76,375.05l-.25,4.19a1.34,1.34,0,0,0,1.13,1.47c1.26.2,4.73.63,4.73.63l0-.93-4.33-.73s-.43,0-.41-.63l.24-3.91S367.54,373.66,366.76,375.05Z"/></g><g id="Linterna"><polygon class="cls-31" points="377.85 346.14 377.25 351.99 380.69 351.73 380.72 345.89 377.85 346.14"/><polygon class="cls-32" points="373.38 345.68 378.05 345.11 380.72 345.89 377.85 346.14 373.38 345.68"/><path class="cls-33" d="M373.06,345.89h4.5a0,0,0,0,1,0,0v5.89a0,0,0,0,1,0,0h-.61a3.89,3.89,0,0,1-3.89-3.89v-2A0,0,0,0,1,373.06,345.89Z" transform="translate(37.69 -36.6) rotate(5.88)"/></g><g id="Estructura"><path class="cls-13" d="M379.24,345.8l27.93-4.25s4.35-.64,6.28,0c0,0,19.63,1.52,25.48,3.15l-30.71,4.05Z"/><polygon class="cls-24" points="408.22 348.75 379.24 345.8 377.33 351.08 407.86 354.64 408.22 348.75"/><path class="cls-24" d="M439.5,349.6a1.25,1.25,0,0,1-1.11,1.26l-30.53,3.78.36-5.89,30.71-4.05Z"/><path class="cls-24" d="M405.66,418.07l14.85-.59L443,403.63l-4.83-51.34a1.81,1.81,0,0,1,.66-1.57l-30.94,3.92Z"/><path class="cls-34" d="M407.74,354.51c-1.44-.07-27.35-3.1-30.3-3.45a.15.15,0,0,0-.15.1c-.39,1.59-.7,3.3-1,4.91-.76,4.43-4,24.91-4.06,25.12a.12.12,0,0,0,0,.1.11.11,0,0,0,.09,0l25.26,3.46-1,33.26a.14.14,0,0,0,.14.14h8.77a.14.14,0,0,0,.13-.13l2.2-63.43A.12.12,0,0,0,407.74,354.51Z"/></g><g id="Escalon"><path class="cls-13" d="M420.23,433,401,437.12a2,2,0,0,1-2.36-2l-.15-13.39a2,2,0,0,1,1.61-2l18.83-3a2,2,0,0,1,2.26,2l.58,12.27A2,2,0,0,1,420.23,433Z"/><path class="cls-35" d="M417.82,431.59,405,433.92c-.82.16-1.52-.09-1.45-.51l.09-4.22c.06-.33.57-.65,1.21-.76l12.83-2.16c.78-.13,1.55.6,1.51,1l-.09,3.48C419.05,431.07,418.46,431.47,417.82,431.59Z"/><path class="cls-35" d="M417.9,424.41,404.72,427c-.82.16-1.53-.09-1.45-.52l.35-4.36c.06-.33.57-.65,1.21-.76l12.83-2.16a1.4,1.4,0,0,1,1.52,1l-.18,3.13A1.48,1.48,0,0,1,417.9,424.41Z"/></g><g id="ventana_1" data-name="ventana 1"><path class="cls-36" d="M422.17,353.62l-10.06,1.47a2.58,2.58,0,0,0-2.6,2.91l-1.77,59.39,8.31-1.35a4.25,4.25,0,0,1,4.46,1.44l8.09-2.35-1.58-20-3.26-38.4S423.35,354.1,422.17,353.62Z"/><path class="cls-37" d="M423.09,354.61a2,2,0,0,0-.92-1l-10.06,1.47a2.58,2.58,0,0,0-2.6,2.91l-1.18,39.67.23,11.16s.18,6.25,3.9,6.25a17,17,0,0,0,3.81-.28s2.48-.14,3.56-4.47c0,0,.2-5.07,2.3-7.52,0,0,4.75-8.21,3.69-12.31Z"/><path class="cls-38" d="M423.09,354.61a4.27,4.27,0,0,0-.92-1l-10.06,1.47a2.58,2.58,0,0,0-2.6,2.91l.12,24.79s-.15,4.77,2.61,4.71c0,0,1.91-.09,2.09,4.59l.18,4.25a2.37,2.37,0,0,1-2.41,2.47s-3.65-.4-3,3.48c0,0-.22,7.47,3.23,7.94a8.74,8.74,0,0,0,4.6-.9s1-.25,3-5.7c0,0,2.06-3.13,3.95-6.52,0,0,1-3.47.45-10.09L422,357.32S422.23,355,423.09,354.61Z"/></g><g id="ventana_2" data-name="ventana 2"><path class="cls-39" d="M430.07,402.81l0-.4c-1.43-16.44-3.22-36.89-3.62-41-.66-6.86-.81-8.5,2.11-9l1.2-.19a21.41,21.41,0,0,1,3.2-.38h.13l0,0a5.28,5.28,0,0,1,1.39,3.29c.39,3.31,2.34,23.07,3.48,34.55v.05l0,0-7.87,13"/><path class="cls-40" d="M436.21,380.49a6.34,6.34,0,0,1-1.5,5.34l-2.84,2.47c-2.74,2.3-3.08-1.61-3.08-1.61l-2.38-25.27c-.66-6.86-.81-8.5,2.11-9l1.2-.19a21.41,21.41,0,0,1,3.2-.38h.13l0,0a5.28,5.28,0,0,1,1.39,3.29Z"/></g><g id="Parabrisas"><path class="cls-41" d="M401.89,354.87l-.86-.17c-2.23-.47-12.26-1.41-17.08-1.87l-1.86-.17c-2.19-.21-3.34.88-4,3.73-.55,2.57-2.3,13.9-2.32,14s-.74,5.22-.83,7.34.06,3.1,1.89,3.3c1,.11,7.89,1.24,14,2.23,4,.65,7.36,1.21,8.56,1.39a11.89,11.89,0,0,0,1.73.15c2.38,0,3.49-1.2,3.63-3.9.08-1.43.24-4.61.41-8.15.28-5.43.59-11.71.71-13.84C406.05,355.68,404.12,355.3,401.89,354.87Z"/><path class="cls-42" d="M401.05,355.88l-.79-.16c-2.06-.44-11.37-1.31-15.84-1.73l-1.72-.16c-2-.2-3.1.81-3.66,3.45-.51,2.39-2.14,12.89-2.15,13s-.69,4.84-.78,6.81.06,2.87,1.75,3.06c.94.1,7.32,1.14,13,2.06,3.66.6,6.82,1.12,7.93,1.29a11.43,11.43,0,0,0,1.61.14c2.2,0,3.23-1.12,3.36-3.62.07-1.32.22-4.27.38-7.55.26-5,.55-10.85.65-12.83C404.91,356.62,403.12,356.28,401.05,355.88Z"/><path class="cls-43" d="M398.85,355.66l-.7-.14c-1.85-.4-10.16-1.18-14.15-1.55l-1.54-.15c-1.81-.17-2.77.73-3.28,3.09-.45,2.13-1.9,11.52-1.92,11.61s-.62,4.33-.69,6.09.05,2.56,1.56,2.73c.84.09,6.54,1,11.58,1.85,3.27.53,6.09,1,7.09,1.15a10,10,0,0,0,1.43.12c2,0,2.89-1,3-3.23.06-1.18.19-3.82.34-6.75.23-4.49.49-9.69.58-11.46C402.3,356.32,400.7,356,398.85,355.66Z"/><path class="cls-44" d="M397.7,355.34c-3.68-.45-9.88-1-13.28-1.35l-1.72-.16c-2-.2-3.1.81-3.66,3.45-.51,2.39-2.14,12.89-2.15,13s-.69,4.84-.78,6.81l17-1.74s3.86-.1,3.92-2.92Z"/></g></g><g id="Cubierta_neumatico_derecho-2" data-name="Cubierta neumatico derecho"><path class="cls-13" d="M376.81,408.39l19.35,1.24s9.46-7.19,14.44,12.16l.79,0s-2.55-11.87-9.12-14.89c0,0-6.12-2.63-18.14-2.18C384.13,404.76,376.73,406.07,376.81,408.39Z"/><path class="cls-14" d="M410.6,421.79c-5-19.35-14.44-12.16-14.44-12.16l-7.71-.5s7.7,4.31,8.22,10.77Z"/></g><g id="Llanta_1-2" data-name="Llanta 1"><g id="Neumático-2" data-name="Neumático"><path class="cls-15" d="M399.07,455.6c-6.86,0-12.43-9.93-12.43-22.18s5.57-22.18,12.43-22.18H381.75c-6.87,0-12.43,9.93-12.43,22.18s5.56,22.18,12.43,22.18Z"/><path class="cls-16" d="M389.8,455.6c-6.87,0-12.43-9.93-12.43-22.18s5.56-22.18,12.43-22.18h-8.05c-6.87,0-12.43,9.93-12.43,22.18s5.56,22.18,12.43,22.18Z"/><rect class="cls-17" x="382.62" y="452.55" width="9.99" height="2.25" rx="1.03" transform="translate(-160.23 217.18) rotate(-26.14)"/><rect class="cls-17" x="377.8" y="446.95" width="12.22" height="2.25" rx="1.03" transform="translate(-158.14 214.97) rotate(-26.14)"/><rect class="cls-17" x="376.22" y="438.96" width="12.22" height="2.25" rx="1.03" transform="translate(-168.82 250.12) rotate(-30)"/><rect class="cls-17" x="375.75" y="430.86" width="12.22" height="2.25" rx="1.03" transform="translate(-151.26 212.42) rotate(-26.14)"/><path class="cls-17" d="M388.81,421.85l-9.57,4.7c-.85.19-1.32,0-1.5-.36l-.38-.77a.78.78,0,0,1,.35-1l9.58-4.7a.78.78,0,0,1,1,.36l.38.77C388.9,421.2,388.74,421.66,388.81,421.85Z"/><rect class="cls-17" x="380.82" y="414.72" width="12.22" height="2.23" rx="1.03" transform="translate(-92.51 111.25) rotate(-14.63)"/><rect class="cls-17" x="373.25" y="452.63" width="8.03" height="2.56" rx="1.18" transform="translate(196.85 -108.06) rotate(21.93)"/><rect class="cls-17" x="369.87" y="445" width="8.46" height="2.56" rx="1.18" transform="translate(159.37 -95.02) rotate(18.33)"/><rect class="cls-17" x="367.11" y="434.94" width="10.17" height="2.56" rx="1.18" transform="translate(267.97 -127.66) rotate(30)"/><rect class="cls-17" x="368.44" y="426.28" width="9.94" height="2.56" rx="1.18" transform="translate(304.75 -135.94) rotate(34.19)"/><rect class="cls-17" x="371.64" y="417.77" width="8.09" height="2.46" rx="1.13" transform="translate(231.52 -124.98) rotate(27.04)"/><rect class="cls-17" x="377.55" y="411.92" width="5.07" height="1.94" rx="0.89" transform="translate(297.66 -142.22) rotate(34.19)"/><path class="cls-17" d="M397.29,411.63l-10.59,1.3c-.65.05-1-.25-1.09-.68h0a.77.77,0,0,1,.67-.87l10.59-1.3a.8.8,0,0,1,.87.68h0A.88.88,0,0,1,397.29,411.63Z"/><ellipse class="cls-17" cx="398.84" cy="433.42" rx="12.43" ry="22.18"/><ellipse class="cls-18" cx="400.18" cy="434.05" rx="8.51" ry="15.18"/></g><g id="Aro-2" data-name="Aro"><ellipse class="cls-19" cx="400.17" cy="434.06" rx="7.8" ry="13.92"/><ellipse class="cls-20" cx="400.15" cy="434.1" rx="5.61" ry="10"/></g></g><g id="Cubierta_neumatico_2" data-name="Cubierta neumatico 2"><path class="cls-14" d="M445.53,382.59l10.73-.13c7.94-.37,11.79,1.29,11.79,1.29s9.19,2,14.19,19.69a16.7,16.7,0,0,1-13.32.35S464.89,390.05,445.53,382.59Z"/><g id="Llanta_1-3" data-name="Llanta 1"><g id="Neumático-3" data-name="Neumático"><path class="cls-15" d="M462.27,443.48c-8.79,0-15.91-12.71-15.91-28.38s7.12-28.38,15.91-28.38H440.1c-8.79,0-15.91,12.71-15.91,28.38s7.12,28.38,15.91,28.38Z"/><path class="cls-16" d="M450.4,443.48c-8.78,0-15.9-12.71-15.9-28.38s7.12-28.38,15.9-28.38H440.1c-8.79,0-15.91,12.71-15.91,28.38s7.12,28.38,15.91,28.38Z"/><rect class="cls-17" x="441.22" y="439.57" width="12.78" height="2.88" rx="1.32" transform="translate(-148.51 242.31) rotate(-26.14)"/><rect class="cls-17" x="435.05" y="432.4" width="15.64" height="2.88" rx="1.32" transform="translate(-145.84 239.49) rotate(-26.14)"/><rect class="cls-17" x="433.02" y="422.18" width="15.64" height="2.88" rx="1.32" transform="matrix(0.87, -0.5, 0.5, 0.87, -152.75, 277.18)"/><rect class="cls-17" x="432.43" y="411.81" width="15.64" height="2.88" rx="1.32" transform="translate(-137.04 236.23) rotate(-26.14)"/><path class="cls-17" d="M449.14,400.29l-12.25,6c-1.09.25-1.68,0-1.93-.45l-.48-1a1,1,0,0,1,.46-1.33l12.25-6a1,1,0,0,1,1.33.45l.48,1C449.24,399.45,449,400.05,449.14,400.29Z"/><rect class="cls-17" x="438.91" y="391.17" width="15.64" height="2.86" rx="1.31" transform="translate(-84.7 125.6) rotate(-14.63)"/><rect class="cls-17" x="429.22" y="439.68" width="10.27" height="3.27" rx="1.5" transform="translate(196.28 -130.3) rotate(21.93)"/><rect class="cls-17" x="424.91" y="429.91" width="10.82" height="3.27" rx="1.5" transform="translate(157.59 -113.45) rotate(18.33)"/><rect class="cls-17" x="421.37" y="417.04" width="13.01" height="3.27" rx="1.5" transform="translate(266.66 -157.85) rotate(30)"/><rect class="cls-17" x="423.07" y="405.96" width="12.71" height="3.27" rx="1.5" transform="translate(303.21 -170.86) rotate(34.19)"/><rect class="cls-17" x="427.17" y="395.06" width="10.36" height="3.14" rx="1.45" transform="translate(227.55 -153.18) rotate(27.04)"/><rect class="cls-17" x="434.73" y="387.59" width="6.49" height="2.48" rx="1.14" transform="translate(294.14 -178.91) rotate(34.19)"/><path class="cls-17" d="M460,387.21l-13.54,1.66c-.84.07-1.34-.32-1.4-.87h0a1,1,0,0,1,.86-1.1l13.55-1.66a1,1,0,0,1,1.11.86h0A1.1,1.1,0,0,1,460,387.21Z"/><ellipse class="cls-17" cx="461.97" cy="415.1" rx="15.9" ry="28.38"/><ellipse class="cls-18" cx="463.68" cy="415.9" rx="10.89" ry="19.43"/></g><g id="Aro-3" data-name="Aro"><ellipse class="cls-19" cx="463.68" cy="415.92" rx="9.98" ry="17.81"/><ellipse class="cls-20" cx="463.65" cy="415.97" rx="7.17" ry="12.8"/></g></g><path class="cls-13" d="M420.62,419.38h17.49s1.23-14.3,6.32-22.06c0,0,3.53-5,14.89-11.9,0,0,4.93-3.28,8.73-1.66,0,0-3.85-1.66-11.79-1.29l-10.73.13a17.83,17.83,0,0,0-11.45,4.8s-7,4.85-11.56,16.05a73.85,73.85,0,0,0-2.47,14.6S419.93,419.38,420.62,419.38Z"/></g></g></g><g id="Capa_4" data-name="Capa 4"><g id="Pico"><path class="cls-45" d="M302.29,482l61,61s1,4-3.5,3.5l-61-61.16S299.29,482,302.29,482Z"/><path class="cls-46" d="M332.29,470s-31,13-46,46C286.29,516,291.29,478,332.29,470Z"/><path class="cls-47" d="M304.13,482.27l4.8,4.65a6.32,6.32,0,0,1-4.8,5.05l-5-4.85S299.43,483.91,304.13,482.27Z"/></g><g id="Pala"><path class="cls-47" d="M297.16,537.69s3.59-4.39,11.44-3.67a1,1,0,0,1,.62.3l3.25,3.24a1,1,0,0,1,.29.73c0,1.61-.28,7.42-2.11,9.45l-5,5.08a1,1,0,0,1-1.42,0l-10.33-10.3a1,1,0,0,1,0-1.4ZM307.26,549c4.79-5.93,1.95-10,1.45-10.59a1.21,1.21,0,0,0-.16-.16c-4.11-3.4-8.85-.25-10.73,1.28a1,1,0,0,0-.08,1.49l8,8.07A1,1,0,0,0,307.26,549Z"/><path class="cls-45" d="M309,534.06l42.31-42.23s10.59-9.75,12.37-8.66h0c1.09,1.78-8.65,12.36-8.65,12.36l-42.23,42.32Z"/><path class="cls-46" d="M369.41,477.44s5.14,10.88-1.78,19.73L357,507.8s-6.09-6.48-7.62-6.58h0l-3.8-3.65s-.88-2.78-6.86-7.68l10.56-10.37S356,472,369.41,477.44Z"/></g></g><g id="Libro"><g id="Libro-2" data-name="Libro"><path id="Pasta" class="cls-48" d="M348,278.3l-4.57,55.52h53.26s3.24,3,7.67,0h53.17L453,278.3Z"/><g id="Papel"><path class="cls-49" d="M377.72,325c-17.68,3.48-21.05,1.88-21.05,1.88l0-53.7-5.83,3.11-3.15,55.07s7.23,1.5,25.16-.31c0,0,18.07-2.45,21.23,0,0,0,2.09-3.79,6.23-3.84C392,321.59,377.72,325,377.72,325Z"/><path class="cls-50" d="M377.57,273s-16.66,2.38-20.92.2l0,53.7s3.37,1.6,21.05-1.88c0,0,14.29-3.38,22.57,2.19l.18-54.12S390.72,269.51,377.57,273Z"/></g><g id="Papel-2" data-name="Papel"><path class="cls-49" d="M423,325c17.68,3.48,21,1.88,21,1.88l0-53.7,5.83,3.11L453,331.33s-7.23,1.5-25.16-.31c0,0-18.08-2.45-21.24,0,0,0-2.09-3.79-6.22-3.84C408.69,321.59,423,325,423,325Z"/><path class="cls-50" d="M423.13,273s16.67,2.38,20.93.2l0,53.7s-3.36,1.6-21-1.88c0,0-14.3-3.38-22.57,2.19L400.23,273S410,269.51,423.13,273Z"/></g></g><g id="Pluma"><path class="cls-51" d="M421.69,296.77c.46-.42.89-.84,1.34-1.26.2.1.31.3.46.44a2.43,2.43,0,0,0,.88.57c.31.09.29.23.17.49a18.54,18.54,0,0,0-1.68,4.31,2,2,0,0,1-.89,1.29c-2.27,1.7-4.54,3.38-6.66,5.27a.71.71,0,0,1-.14.1c-.1-.1,0-.16,0-.22,1.31-1.74,2.56-3.53,3.91-5.24a1,1,0,0,1,.68-.44,1.05,1.05,0,0,0,.87-.74.61.61,0,0,0-.16-.74.78.78,0,0,0-.92-.05,1.11,1.11,0,0,0-.5,1.1.8.8,0,0,1-.17.62c-1.27,1.8-2.59,3.57-3.81,5.4a.16.16,0,0,1-.17.09,2.65,2.65,0,0,1,.33-.86c.11-.27.24-.53.36-.8l2.74-6.45a.81.81,0,0,1,.28-.35C419.67,298.48,420.69,297.67,421.69,296.77Z"/><path class="cls-50" d="M425.5,293.55c-.37.45-.74.86-1.05,1.32a.56.56,0,0,1-.83.23c-.08-.05-.18,0-.26-.16a11.84,11.84,0,0,1,.9-1.36c3.53-5,7.25-9.85,11.24-14.5a100.07,100.07,0,0,1,10.78-11,66,66,0,0,1,9.06-6.42,30.93,30.93,0,0,1,6.42-3,10.55,10.55,0,0,1,3.29-.59,3.3,3.3,0,0,1,1.28.23.88.88,0,0,1,.62,1.05,5.25,5.25,0,0,1-.58,1.78,13.07,13.07,0,0,1-1.42,2.27,3.25,3.25,0,0,1-1.91,1.19c-1.11.26-2.25.24-3.37.39a4.59,4.59,0,0,0-1.53.38c1.78-.27,3.56.4,5.39-.12a5.49,5.49,0,0,1-.65,1.18c-1.6,2.58-3.22,5.13-4.95,7.62a16.41,16.41,0,0,1-6.5,5.47,30.23,30.23,0,0,1-6.4,2.12,2.3,2.3,0,0,0-.57.21,29.49,29.49,0,0,0,7.58-1.05c0,.16-.07.21-.14.28a34,34,0,0,1-8.47,6.56,25.51,25.51,0,0,1-5,1.87c-1.92.55-3.86,1-5.79,1.49a3.52,3.52,0,0,0-.6.2,9.83,9.83,0,0,1,3.62.41c-4.08.3-7.8,1.43-10.65,4.61-.19-.22-.36-.4-.5-.59s0-.26.11-.36c1.25-1.41,2.5-2.83,3.76-4.23q6.06-6.74,12.57-13.05a148.75,148.75,0,0,1,11.27-10,89.63,89.63,0,0,1,8.67-6.18s0,0,.09-.13c-.68.37-1.3.69-1.89,1A81.7,81.7,0,0,0,447.45,271a169.23,169.23,0,0,0-18.58,18.52C427.73,290.83,426.61,292.17,425.5,293.55Z"/></g></g><g id="Capa_9" data-name="Capa 9"><g id="Cornucopia"><path class="cls-52" d="M485.52,501.85a29,29,0,0,1,11.58,13,25.48,25.48,0,0,1,2.8,12.74c-.24,4.24-1.78,7.86-5.35,10.42a13.93,13.93,0,0,1-4.85,2.16c1.55-3.55,3.11-7.15,4.68-10.75l-.12-.09-3,1.16v-.77a34.14,34.14,0,0,0-4.9-19.11,21.92,21.92,0,0,0-9.39-8.8,17.59,17.59,0,0,0-4.82-1.47c-.13,0-.25-.06-.51-.12a16.69,16.69,0,0,1,6.14-.73A18.66,18.66,0,0,1,485.52,501.85Z"/><path class="cls-52" d="M481.33,533.6c.07-.86.16-1.73.22-2.59a38.37,38.37,0,0,0-3.87-20.1,20.89,20.89,0,0,0-6.9-8.21c-1.15-.78-2.43-1.37-3.6-2,0,0,0,0,.12,0a17.87,17.87,0,0,1,14.36,4.88,27.65,27.65,0,0,1,7.4,12,33.57,33.57,0,0,1,1.72,12.7.46.46,0,0,1-.39.52Q486.7,531.84,483,533c-.56.17-1.09.42-1.67.61Z"/><path class="cls-52" d="M476.79,498.2a16.59,16.59,0,0,1,12.1-.35,26.9,26.9,0,0,1,12.58,9,23.28,23.28,0,0,1,4.83,9.54,12.9,12.9,0,0,1-2,11.07,14.88,14.88,0,0,1-4.48,3.89c.15-.78.31-1.5.42-2.23a21.53,21.53,0,0,0-.61-8.71,31.29,31.29,0,0,0-10.87-16.91,19.72,19.72,0,0,0-9.49-4.29c-1.07-.16-2.17-.13-3.26-.19a2.58,2.58,0,0,1-.65-.07Z"/><path class="cls-52" d="M502.89,507.91a28.35,28.35,0,0,0-12.84-10.14,18.75,18.75,0,0,0-8.61-1.26c-.3,0-.59.07-.89.11l-.07-.11c.58-.43,1.14-.9,1.75-1.29a12.72,12.72,0,0,1,8.33-1.79,24.9,24.9,0,0,1,17.79,10.28,14.17,14.17,0,0,1,2.91,7.32,12,12,0,0,1-2.34,8.31,22.67,22.67,0,0,1-1.74,2.09C507.5,516.36,505.71,512,502.89,507.91Z"/><path class="cls-53" d="M475.7,508.45a33.07,33.07,0,0,1,4.81,12.38A39,39,0,0,1,481,532a7.43,7.43,0,0,1-.23,1.58c-.1.31-.47.52-.76.81a9.32,9.32,0,0,0-4.6-3.54l3.6-8.52c-.25-.26-.46-.12-.63.16q-1.41,2.19-2.8,4.39c-.16.25-.29.51-.43.77l-.15,0c.21-1,.38-2.1.63-3.14a7.91,7.91,0,0,1,2.49-4.15,25.33,25.33,0,0,0,1.77-1.93l-.36-.37a9.67,9.67,0,0,0-4.64,3.6c0-.18.06-.35.1-.53s.08-.36.13-.53a13,13,0,0,0,.47-4.12,2.66,2.66,0,0,0-.94-1.93,1.91,1.91,0,0,0-2.6-.08l-1.12.9c-.35-.94-.74-1.86-1-2.81-.09-.33.15-.75.27-1.29l-.7.32c-2-4.39-4.54-8.48-9.07-11.11,1.1,0,2.08-.08,3.05,0,4.75.46,8.34,2.94,11.21,6.6C475.05,507.51,475.36,508,475.7,508.45Z"/><path class="cls-52" d="M501.37,496.66a25.21,25.21,0,0,0-8.7-3.43,16.34,16.34,0,0,0-7.95.33,5.81,5.81,0,0,1-.81.14,11.8,11.8,0,0,1,4.63-4,13.63,13.63,0,0,1,8-1.12,22,22,0,0,1,12.78,6.39,13.49,13.49,0,0,1,3.82,6.32,8.53,8.53,0,0,1-1.71,7.73C509.76,503.47,506.09,499.66,501.37,496.66Z"/><path class="cls-54" d="M435.49,551.3l-1.25.48a2.68,2.68,0,0,0-1.55-2.25,4.88,4.88,0,0,0-.32-1.78,2.42,2.42,0,0,1-.21-2.18,10.52,10.52,0,0,1,6.33-7.48,6,6,0,0,1,6.92,1.4,7.41,7.41,0,0,1,1.78,5.24,9.36,9.36,0,0,1-.74,3.61,5.45,5.45,0,0,1-.56,1,.71.71,0,0,1-.47.17,39,39,0,0,0-9.28,1.58Z"/><path class="cls-52" d="M463.93,503.73a26.62,26.62,0,0,1,5.23,8.25.75.75,0,0,1,0,.51c-.74,1.5-1.49,3-2.27,4.54-.3-.78-.57-1.52-.88-2.24a18.72,18.72,0,0,0-5.08-7.3,7,7,0,0,0-10.36.64l-.2.23-.25.28-.93-1.66c-.26-.45-.5-.91-.77-1.35-.06-.1-.23-.14-.35-.2,0,.13-.12.27-.09.39.28,1.41.58,2.81.87,4.22a.79.79,0,0,1,0,.43c-.57,1.22-1.16,2.44-1.74,3.66L444,511.75a.4.4,0,0,1-.11-.32c1.23-3.58,2.88-6.9,5.86-9.37a9.15,9.15,0,0,1,11.68-.44A32.75,32.75,0,0,1,463.93,503.73Z"/><path class="cls-52" d="M507,485.35a14.7,14.7,0,0,1,5.92,5.54,8.06,8.06,0,0,1,.15,8,1.63,1.63,0,0,1-.11.17h0c-3.64-6.29-9.15-9.79-16.19-11a13.88,13.88,0,0,0-8.2,1,4.72,4.72,0,0,1-1,.19c.06-.2.08-.32.13-.44a9.18,9.18,0,0,1,7.2-5.74A18.13,18.13,0,0,1,507,485.35Z"/><path class="cls-52" d="M506.55,477.91a13.31,13.31,0,0,1,4.85,3c2.78,2.83,3.2,6.14,2,9.74-.67-.84-1.28-1.75-2-2.52a19.08,19.08,0,0,0-10.31-5.4,14.33,14.33,0,0,0-8.2.49,20.94,20.94,0,0,0-2.63,1.43c-.2.11-.38.26-.64.44a7.17,7.17,0,0,1,1.9-5.25,9.72,9.72,0,0,1,5.3-2.75A17.7,17.7,0,0,1,506.55,477.91Z"/><path class="cls-52" d="M510,473.13c3.16,2.49,4.11,5.74,3.45,9.6-.08,0-.13-.06-.15-.09a12.57,12.57,0,0,0-7.11-5.34,17.34,17.34,0,0,0-10.8-.31,9.62,9.62,0,0,0-3.79,2.09l-.24.18a6.11,6.11,0,0,1,1.89-6.33,10.47,10.47,0,0,1,5.41-2.34,15.6,15.6,0,0,1,9.79,1.55C509,472.42,509.48,472.78,510,473.13Z"/><path class="cls-52" d="M497.24,465.35a13.63,13.63,0,0,1,13.4,2.08,7,7,0,0,1,2.29,8,.46.46,0,0,1-.07.1c-2.18-3.37-5.45-4.93-9.27-5.45A13.61,13.61,0,0,0,493,472.5a6.93,6.93,0,0,1,.33-3.29A6.69,6.69,0,0,1,497.24,465.35Z"/><path class="cls-52" d="M512.61,463.2a6.29,6.29,0,0,1,.25,6.05c-2.93-4.94-11.62-6.77-16.91-3.79a4.58,4.58,0,0,1,1-3.47,7,7,0,0,1,4.33-2.43,12,12,0,0,1,9.4,1.76A13.48,13.48,0,0,1,512.61,463.2Z"/><path class="cls-53" d="M515,462.73a5.17,5.17,0,0,1-1.15,2.33c-.81-3.09-3-4.63-5.8-5.56a13.4,13.4,0,0,0-7.38-.3,5.54,5.54,0,0,1,4-3.2,9.54,9.54,0,0,1,9,2.77A4.33,4.33,0,0,1,515,462.73Z"/><path class="cls-53" d="M514.79,459.42a9.62,9.62,0,0,0-6.45-3.94,22.11,22.11,0,0,0-2.23-.23,8.87,8.87,0,0,1,2.57-1.42,7.22,7.22,0,0,1,9.21,4.06,4,4,0,0,1-2.53,5.52A4.7,4.7,0,0,0,514.79,459.42Z"/><path class="cls-53" d="M520.33,454.17a5.51,5.51,0,0,1,2,2.93,3.81,3.81,0,0,1-1.78,4.31,7.18,7.18,0,0,1-2.65,1,11.49,11.49,0,0,0,.73-2.09,5.93,5.93,0,0,0-2-5.13,7.59,7.59,0,0,0-3.33-2l-.4-.12A8.12,8.12,0,0,1,520.33,454.17Z"/><path class="cls-53" d="M524.4,454.73a4.33,4.33,0,0,1,2.18,3.24,3.6,3.6,0,0,1-1.63,3.5,7.09,7.09,0,0,1-5.14.86c1.8-.87,3-2.06,3.07-4a5.51,5.51,0,0,0-2.3-4.53A7,7,0,0,1,524.4,454.73Z"/><path class="cls-55" d="M445.1,522.71l-.44.53c-.34-.41-.68-.81-1-1.23a.4.4,0,0,1,0-.27,2.63,2.63,0,0,0-.47-2,3.61,3.61,0,0,1-.59-3.12c.37-1.42.63-2.86,1-4.44,1.08,1.35,2,2.56,3,3.78a.62.62,0,0,1,.05.41c-.26,1.75-.5,3.5-.82,5.24A3.54,3.54,0,0,1,445.1,522.71Z"/><path class="cls-56" d="M526.71,462.75c-.85-.05-1.64-.11-2.44-.18,3-2.23,3.5-3.81,2-6.74,2.17.23,3.75,1.73,3.74,3.55A3.46,3.46,0,0,1,526.71,462.75Z"/><path class="cls-56" d="M531.81,463.84a3.67,3.67,0,0,1-4.89-.4c2.32-.87,4-2.21,3.47-5.08a3.59,3.59,0,0,1,2.44,2.33A3,3,0,0,1,531.81,463.84Z"/><path class="cls-57" d="M498.88,549.68c1.1,0,2.17-.15,3.23-.11,1.62.06,2.76,1,3.87,2.28-1.13,0-2.17,0-3.21,0a18.33,18.33,0,0,1-1.95-.17,1,1,0,0,1-.52-.31c-.54-.56-1.05-1.13-1.55-1.68Z"/><path class="cls-57" d="M503.34,548a10.66,10.66,0,0,1-5.3,1.39,9.62,9.62,0,0,1,7.84-3.51C505,546.58,504.2,547.27,503.34,548Z"/><path class="cls-58" d="M531.06,464.82a3.71,3.71,0,0,0,2.33-4,2.78,2.78,0,0,1,.74,4.07,3.43,3.43,0,0,1-5,.33Z"/><path class="cls-59" d="M498,552.24a3.61,3.61,0,0,1-2.66-1,6.9,6.9,0,0,0-1.29-.87,1.92,1.92,0,0,1,.35-.14c1-.11,2.08-.26,3.13-.3a2.47,2.47,0,0,1,2.06,1.07c.31.41.61.82.95,1.29Z"/><path class="cls-57" d="M497.11,549.19l-3,.7-.12-.22c.17-.2.35-.39.52-.58a7.73,7.73,0,0,1,6.13-2.74A9.11,9.11,0,0,1,497.11,549.19Z"/><path class="cls-57" d="M501.24,541.55a5.55,5.55,0,0,1,4.58.69c-.92.27-1.79.56-2.68.79a14.52,14.52,0,0,1-2,.41,1.31,1.31,0,0,1-.73-.19c-.53-.27-1-.58-1.61-.91Z"/><path class="cls-58" d="M501.75,540.26a12.4,12.4,0,0,1-3.68,1.86,9.2,9.2,0,0,1,6.06-4.79A9.91,9.91,0,0,1,501.75,540.26Z"/><path class="cls-56" d="M533.32,469.76a2.36,2.36,0,0,1-1.15-1.73,3.09,3.09,0,0,0,3.89-1.4,2.23,2.23,0,0,1,.09,2.68A2.31,2.31,0,0,1,533.32,469.76Z"/><path class="cls-59" d="M496,544.64l-1.67-.51c.9-.37,1.74-.74,2.6-1.06,1.46-.54,2.67,0,3.85,1.06-1.05.25-2,.55-3,.69A6.76,6.76,0,0,1,496,544.64Z"/><path class="cls-57" d="M535.39,466.8a2.63,2.63,0,0,1-4.22-.19,3.8,3.8,0,0,0,4-2.71A2.17,2.17,0,0,1,535.39,466.8Z"/><path class="cls-60" d="M502.81,548.66a1.39,1.39,0,0,0,.25-.14,3.26,3.26,0,0,1,3.14-.55c.77.17,1.55.31,2.33.46v.15l-4.16,1.18a.75.75,0,0,1-.39,0l-2.2-.65Z"/><path class="cls-57" d="M498.4,540.83a8.29,8.29,0,0,1-4.23,2.82,7.92,7.92,0,0,1,5.28-4.51Z"/><path class="cls-59" d="M491.69,544.59a1,1,0,0,1-.47,0,5.59,5.59,0,0,1-.63-.57c1.05-1.89,2.93-2.51,4.83-3.23A8.36,8.36,0,0,1,491.69,544.59Z"/><path class="cls-60" d="M496.56,545.66l-3.57,1-1.21-1.58a5.27,5.27,0,0,1,5,.46Z"/><path class="cls-60" d="M501.58,540.93a17.22,17.22,0,0,0,1.37-1.17,1.71,1.71,0,0,1,1.05-.6l3.31-.48.08.19a39.16,39.16,0,0,1-3.59,2,6.16,6.16,0,0,1-2.17.1S501.58,540.93,501.58,540.93Z"/></g><g id="Frutas"><path class="cls-61" d="M442.3,536.62c-.94-5.56.09-10.52,4.12-14.63a11.15,11.15,0,0,1,1.12-.94,7.07,7.07,0,0,1,4.87-1.49c1.14.05,2.28,0,3.41.18a5,5,0,0,1,1.66.67,11.93,11.93,0,0,1,5.06,5.78,17.15,17.15,0,0,1,.86,11.35,17.07,17.07,0,0,0-9.1-1.82,14.85,14.85,0,0,0-8.62,3.36,6.84,6.84,0,0,0-3.08-1.8C442.45,537.25,442.4,536.87,442.3,536.62Z"/><path class="cls-62" d="M467.67,548.86a3.82,3.82,0,0,0-4.16-.88.55.55,0,0,1-.47-.06,3.84,3.84,0,0,0-5.63.4l-.07,0a3.93,3.93,0,0,0-5,.62,3.94,3.94,0,0,0-5.26-1c.86-3,.81-5.88-1.13-8.55.38-.29.75-.59,1.15-.86a14.76,14.76,0,0,1,7.26-2.38,15.86,15.86,0,0,1,10.24,2.67,11.82,11.82,0,0,1,5.28,8.59l-2,1.46C467.89,548.94,467.78,548.89,467.67,548.86Z"/><path class="cls-63" d="M480.39,536.46a6,6,0,0,1-.34,3.77.71.71,0,0,1-.56.48,7.14,7.14,0,0,0-4.19,2.08.61.61,0,0,1-.52.05,13.48,13.48,0,0,0-4.77-.49c-.41,0-.82.1-1.27.16a13,13,0,0,0-4.81-4.67c.17-1.5.33-2.92.51-4.34a.87.87,0,0,1,.32-.47,9.63,9.63,0,0,1,5.66-2.31,10.36,10.36,0,0,1,7.3,1.92A6.89,6.89,0,0,1,480.39,536.46Z"/><path class="cls-62" d="M483.06,549.16a12.56,12.56,0,0,0-6.06-5.48c-.42-.2-.85-.37-1.32-.57a6,6,0,0,1,3.41-1.86,13.09,13.09,0,0,1,9.52,1.91,10.37,10.37,0,0,1,4.54,4.94,4.74,4.74,0,0,1-.75,5.39,6.16,6.16,0,0,1-3.42,1.79,11.75,11.75,0,0,1-5.71-.3,2.57,2.57,0,0,1-.26-.12A5.64,5.64,0,0,0,483.06,549.16Z"/><path class="cls-64" d="M426.94,537l-.8-.34a8.45,8.45,0,0,1,2.28-3.48.64.64,0,0,1,.37-.1,5,5,0,0,1,3,.77c.17-.28.32-.57.51-.84.56-.77,1.14-1.53,1.72-2.28a.68.68,0,0,1,.41-.23,7.3,7.3,0,0,1,5.55,1.7,4.09,4.09,0,0,1,1.6,3.11,12,12,0,0,0,.27,1.78c-5.26,0-8.18,3.09-10,7.64a3,3,0,0,0-3.59-1.43,2.69,2.69,0,0,0-1-2C428.77,539.69,428.67,538.11,426.94,537Z"/><path class="cls-65" d="M459.23,515.73c.91-1.27,1.8-2.5,2.67-3.75a1.48,1.48,0,0,0,.14-.52,1.6,1.6,0,0,0-.51.15c-2.06,1.58-4.11,3.18-6.16,4.77l-.34.24,3.21-10.29c.7.41,1.35.74,1.94,1.16a13.85,13.85,0,0,1,4.15,5c.81,1.55,1.44,3.2,2.11,4.82a1,1,0,0,1,0,.76c-1.13,2.53-2.29,5.06-3.44,7.59,0,0-.05,0-.11.1a12.52,12.52,0,0,0-6.29-6.29Z"/><path class="cls-66" d="M470.78,542.75a14,14,0,0,1,11,5.24,6.72,6.72,0,0,1,1.48,3.25,4.51,4.51,0,0,1-2,4.74,8.07,8.07,0,0,1-5,1.25,12.23,12.23,0,0,0,1-2,3.58,3.58,0,0,0-2.26-4.3.84.84,0,0,1-.44-.43,3.71,3.71,0,0,0-3.85-3h-.27c-.18-.79-.31-1.57-.54-2.33s-.55-1.47-.86-2.29Z"/><path class="cls-67" d="M440.3,525.87c.35,2.37.7,4.7,1.06,7a.38.38,0,0,1-.11-.08,7.12,7.12,0,0,0-4.69-2.75c-.22,0-.59-.14-.61-.26-.08-.43-.41-.91.09-1.3a.72.72,0,0,0,.11-.15,8,8,0,0,0,.8.25c.4.07.81.13.95-.42l0-.05a1,1,0,0,0,.45-1.27,3.65,3.65,0,0,0-.65-1.27,4.87,4.87,0,0,1-.87-1.5.79.79,0,0,1,.32-1,.87.87,0,0,0,.35-1,2.52,2.52,0,0,1,.6-2.3c.29,0,.43.12.52.44a2.94,2.94,0,0,0,.48.76c.14-.24.39-.47.4-.72.05-1,.05-2,0-3,0-.72-.17-1.43-.25-2.14,0-.18,0-.36,0-.69a3.28,3.28,0,0,1,.28.39l1.5,3.77a1.17,1.17,0,0,0,.11.28c.05.08.17.18.22.16a.38.38,0,0,0,.21-.22c.06-.31.08-.62.12-.93.06,0,.11,0,.11,0,.44,1,.9,1.9,1.27,2.88.11.28-.05.66-.05,1,0,.16.08.41.18.45.65.26.72.89,1,1.4a.34.34,0,0,1-.06.27,16.68,16.68,0,0,0-2.51,6.88,1.45,1.45,0,0,1-.12.25l-1-7.29c-.36.26-.39.64-.18,2.06m-.57,4.11a1.08,1.08,0,0,0-.36,0,.37.37,0,0,0,0,.29c.35.42.72.81,1.15,1.3l.31-.33C440.45,530.8,440.12,530.41,439.73,530Z"/><path class="cls-68" d="M448.84,507.36c.6,1,1.21,2.08,1.8,3.12l1.94,3.47c.28.49.4.5.72,0l3.37-5.24c.1-.16.22-.32.33-.48l.12.06c-.05.18-.09.36-.15.54q-1.23,4-2.48,8a.73.73,0,0,0-.07.24c0,.14,0,.28,0,.42a1.19,1.19,0,0,0,.44-.13c.94-.7,1.86-1.43,2.78-2.15s1.75-1.35,2.68-2a.15.15,0,0,1,.08.05q-2.06,2.91-4.14,5.81a.77.77,0,0,1-.55.2c-1.11,0-2.21-.09-3.31-.1-.77,0-1.54.1-2.31.13a.62.62,0,0,1-.43-.14c-1.57-1.94-3.12-3.89-4.62-5.91.1.06.2.11.3.18,1.61,1.22,3.22,2.45,4.85,3.66a1.73,1.73,0,0,0,.51.19,1.48,1.48,0,0,0,0-.51c-.61-3-1.24-5.89-1.86-8.84a3,3,0,0,1-.06-.48S448.84,507.36,448.84,507.36Z"/><path class="cls-69" d="M453.88,555.63a3.29,3.29,0,1,1-4.08-2.49,3.31,3.31,0,0,1,3.95,2C453.8,555.3,453.83,555.44,453.88,555.63Z"/><path class="cls-69" d="M468.86,552a3.25,3.25,0,0,1,3.33,2.9,3.29,3.29,0,1,1-3.33-2.9Z"/><path class="cls-70" d="M464.09,555.59a3.21,3.21,0,0,1-1.75,3.87,3.32,3.32,0,0,1-4.08-1,3.19,3.19,0,0,1,.94-4.59,3.34,3.34,0,0,1,4.7,1.29C464,555.27,464,555.41,464.09,555.59Z"/><path class="cls-71" d="M443.82,550.09l1.75-.12c0,.69,0,1.33,0,2,0,.49-.5.62-.88.72a26.87,26.87,0,0,1-3.18.68c-2,.24-4,.41-5.94.54a8.55,8.55,0,0,1-1.94-.22,2.32,2.32,0,0,1-.62-.36c.15-.19.26-.45.46-.55a17.77,17.77,0,0,1,2.27-1A35.52,35.52,0,0,1,443.82,550.09Z"/><path class="cls-69" d="M463.76,548.39a3.29,3.29,0,0,1,4.45,2.65c.05.38,0,.55-.42.67a3.63,3.63,0,0,0-2.45,2.34c-.07.19-.21.52-.32.52a1.61,1.61,0,0,1-1-.21,5.46,5.46,0,0,0-1.73-1.26.79.79,0,0,1-.34-.4A3.19,3.19,0,0,1,463.76,548.39Z"/><path class="cls-65" d="M452.69,507a6,6,0,0,1,5-.73l-4.77,7.4-.45-.77c-.62-1.11-1.22-2.23-1.87-3.33a.6.6,0,0,1,.1-.87Z"/><path class="cls-69" d="M453.32,553.66a1.72,1.72,0,0,0-.37-.32c-1.08-.51-1.12-1.46-1-2.43a3.27,3.27,0,0,1,3.83-2.63,3.21,3.21,0,0,1,2.68,3.55.52.52,0,0,1-.06.13c-2.71.35-3.2.65-4.25,2.62Z"/><path class="cls-70" d="M472.67,555.31a3.71,3.71,0,0,0-1.46-3,3.3,3.3,0,0,1,4.38-.5,3.15,3.15,0,0,1,.88,4.23,3.29,3.29,0,0,1-4.29,1.22C472.34,556.59,472.51,556,472.67,555.31Z"/><path class="cls-72" d="M440.91,553.92l3.27-.61-.56,2.7c-.77.14-1.7.34-2.63.48a26.93,26.93,0,0,1-5.81.33,8,8,0,0,1-1.28-.21,4,4,0,0,1-.7-.35,8.07,8.07,0,0,1,1-.75,10.52,10.52,0,0,1,4.39-1.31C439.34,554.17,440.1,554,440.91,553.92Z"/><path class="cls-69" d="M450.66,552.58a2.88,2.88,0,0,1-.9-.26,4,4,0,0,0-3.68-.43,3,3,0,0,1,.85-3.13,3.36,3.36,0,0,1,4.87.29.53.53,0,0,1,.09.7,3.53,3.53,0,0,0-.24,2.9Z"/><path class="cls-68" d="M468,515.93l.69-1.37.08,0c0,.11,0,.23-.06.34a30.33,30.33,0,0,0-.95,4A18.09,18.09,0,0,1,466,523.9c-.6,1.5-1.29,3-1.94,4.46l-.15.3c-.25-.72-.49-1.37-.69-2a.82.82,0,0,1,.07-.48c.57-1.37,1.12-2.76,1.74-4.11C466,520,467,518,468,515.93Z"/><path class="cls-73" d="M447.66,554a3.68,3.68,0,0,0-.05,4.43,3.17,3.17,0,0,1-2-5.77,3.23,3.23,0,0,1,3.75,0Z"/><path class="cls-69" d="M457.27,557.32l.57,1.47a3,3,0,0,1-2.92-1.57,3.16,3.16,0,0,1,.65-3.89,3.33,3.33,0,0,1,4.14-.27A3.73,3.73,0,0,0,457.27,557.32Z"/><path class="cls-62" d="M488.37,541.25l-.52.83c-1.08-.37-2.1-.8-3.16-1.06a24,24,0,0,0-3.17-.46c-.35,0-.78,0-.83-.38a1.34,1.34,0,0,1,.34-1,21.38,21.38,0,0,1,1.87-1.43,5.89,5.89,0,0,0,2.86,1.63l3.2.86Z"/><path class="cls-69" d="M461.68,547.59l1.16.7a3.76,3.76,0,0,0-1.39,4.55c-1,.4-1.68-.44-2.54-.71a3.72,3.72,0,0,0-1.14-3.41A3.25,3.25,0,0,1,461.68,547.59Z"/><path class="cls-68" d="M478.74,519.05l-1.55,1.57a9.5,9.5,0,0,0-2.3,5c-.23,1.17-.39,2.37-.71,3.52s-.42,1.18-1.64,1.09l-.84-.09,1.29-3.76a18.25,18.25,0,0,1,3.29-5.7,6,6,0,0,1,2.39-1.7A.11.11,0,0,1,478.74,519.05Z"/><path class="cls-74" d="M423,548.18a2.26,2.26,0,0,1-2.23-1.31,1.87,1.87,0,0,1,.35-2.15,2.53,2.53,0,0,1,3.45-.17,1.93,1.93,0,0,1,.64,2.12A2.33,2.33,0,0,1,423,548.18Z"/><path class="cls-74" d="M431.13,554.38a2.52,2.52,0,0,1-3,.73,2,2,0,0,1-.05-3.78,2.41,2.41,0,0,1,3.43,1.55A1.92,1.92,0,0,1,431.13,554.38Z"/><path class="cls-69" d="M471.18,551.6l-.33.31-2-.48c-.2-.6-.42-1.24-.61-1.88a.45.45,0,0,1,.07-.31,3.4,3.4,0,0,1,3.47-1.14,3.16,3.16,0,0,1,2.34,2.59A4.07,4.07,0,0,0,471.18,551.6Z"/><path class="cls-68" d="M488.45,537l1.92.47-1.19,2.34c-2-.79-4.23-.71-5.88-2.38l2.9-1.9A4.55,4.55,0,0,0,488.45,537Z"/><path class="cls-74" d="M420.12,550.32a8.85,8.85,0,0,1,1.27.64,1,1,0,0,1,.39,1.19,1.21,1.21,0,0,0,0,.68.94.94,0,0,1-.34,1,2.56,2.56,0,0,1-3.31.12,2,2,0,0,1-.67-2.17,2.28,2.28,0,0,1,2.05-1.51C419.68,550.29,419.88,550.31,420.12,550.32Z"/><path class="cls-68" d="M420.17,539.29c-.58.3-1.13.6-1.68.86a.44.44,0,0,1-.42,0c-.46-.6-.9-1.23-1.4-1.92l1.25-.5a4.94,4.94,0,0,0,2.43-1.79.43.43,0,0,1,.39-.12c1,.41,1.9.84,2.92,1.3A5.89,5.89,0,0,1,420.17,539.29Z"/><path class="cls-74" d="M413.34,550.13c-.25.42-.46.81-.7,1.18a1.32,1.32,0,0,1-.4.47,2.5,2.5,0,0,1-3-.63,2,2,0,0,1,.44-2.91,2.44,2.44,0,0,1,3.65.91A2.47,2.47,0,0,1,413.34,550.13Z"/><path class="cls-74" d="M423.72,537.83a2.52,2.52,0,0,1,3.62,0,2,2,0,0,1-.26,2.88,1.21,1.21,0,0,1-.64.12c-.65,0-1.31,0-2,0-.25,0-.4,0-.52-.22a2.67,2.67,0,0,0-.31-.51A1.52,1.52,0,0,1,423.72,537.83Z"/><path class="cls-74" d="M426.89,548.24c.06.06.11.1.11.14a2.58,2.58,0,0,0,1,2.31c-.47.48-.88.95-1.36,1.35a1.24,1.24,0,0,1-.74.22,2.32,2.32,0,0,1-2.16-1.22,1.83,1.83,0,0,1,.13-2,2.33,2.33,0,0,1,2.33-1A4,4,0,0,1,426.89,548.24Z"/><path class="cls-74" d="M422.68,542.74c-.19,1-.5,1.09-1.38.68l0,0c-.93,0-1.39-.82-2.07-1.26a.62.62,0,0,1-.2-.42,2,2,0,0,1,1-1.81,2.48,2.48,0,0,1,3.54.9.57.57,0,0,1-.11.71A8,8,0,0,0,422.68,542.74Z"/><path class="cls-74" d="M416.3,553.87a2.46,2.46,0,0,1-3.13-1.23,2.12,2.12,0,0,1,1.7-2.8.5.5,0,0,1,.27.08,7.2,7.2,0,0,0,1,.71,6.31,6.31,0,0,0,1.16.36,7.56,7.56,0,0,0-.32.91,1.52,1.52,0,0,0,0,.84C417.2,553.4,416.85,553.65,416.3,553.87Z"/><path class="cls-75" d="M427.75,549.75a2,2,0,0,1,.29-2.43,2.56,2.56,0,0,1,2.79-.51,2.12,2.12,0,0,1,1.33,2.05c0,.26,0,.46-.39.43a2.91,2.91,0,0,0-2.78,1.16.47.47,0,0,1-.46,0A5.94,5.94,0,0,1,427.75,549.75Z"/><path class="cls-74" d="M417.45,546.78c.51.87.81,1.08,2.14,1.54l-.51,1.39a.59.59,0,0,1-.1.17,2.46,2.46,0,0,1-3.65-.49,2.11,2.11,0,0,1,1.59-3.13C417.33,546.23,417.31,546.53,417.45,546.78Z"/><path class="cls-74" d="M425.42,541.15a2.41,2.41,0,0,1,2.19,1.34c.3.63.22.9-.29,1.37a3.33,3.33,0,0,0-.62.78.85.85,0,0,1-1.3.14,3,3,0,0,0-2-1.27.57.57,0,0,1-.26-.43,2.1,2.1,0,0,1,1.62-1.82C424.94,541.21,425.16,541.19,425.42,541.15Z"/><path class="cls-62" d="M491.31,535.45c-.21.46-.39.89-.6,1.3-.07.12-.26.28-.35.25-.95-.27-1.89-.53-2.81-.88a4.35,4.35,0,0,1-1-.76,18.88,18.88,0,0,0,1.65-1.06,1.54,1.54,0,0,1,1.91-.17,12,12,0,0,0,1.48.62Z"/><path class="cls-62" d="M416.9,534.52a.72.72,0,0,1,.86-.07c.73.35,1.49.66,2.28,1a3.47,3.47,0,0,1-1.58,1.46c-.57.27-1.17.5-1.77.72a.5.5,0,0,1-.44-.13c-.41-.6-.8-1.22-1.22-1.88Z"/><path class="cls-74" d="M427.1,545.4c-.05-.14-.11-.27-.07-.37a2.43,2.43,0,0,1,2.87-1.33,2.15,2.15,0,0,1,1.64,2.51c0,.11-.09.21-.14.36a3.07,3.07,0,0,0-2.85-.17Z"/><path class="cls-74" d="M420.39,547.16l.3.5a2.22,2.22,0,0,1-2.56-.67,2,2,0,0,1,0-2.5,2.53,2.53,0,0,1,3.19-.55A2.53,2.53,0,0,0,420.39,547.16Z"/><path class="cls-68" d="M434.78,529.19l-3.21,3.92a8.92,8.92,0,0,0-3.93-.52l0-.18c.75-.16,1.49-.37,2.25-.46.51-.07.5-.23.44-.68a16.12,16.12,0,0,1-.15-2.71,5.82,5.82,0,0,1,1.38,2,2.25,2.25,0,0,1,.08.24c.1.36.24.39.55.14.81-.64,1.66-1.23,2.54-1.82A.17.17,0,0,1,434.78,529.19Z"/><path class="cls-74" d="M423,551a.19.19,0,0,1,.13,0,3,3,0,0,0,3,1.7l.12,0c0,.32.08.64.1,1a.48.48,0,0,1-.12.26,2.5,2.5,0,0,1-2.64.52,2.09,2.09,0,0,1-1.44-2A1.84,1.84,0,0,1,423,551Z"/><path class="cls-68" d="M421.44,532.75a7.14,7.14,0,0,0,1,.16,1.3,1.3,0,0,1,1.29,1.08,4.5,4.5,0,0,1,.05,2.65l-3.08-1.4a2.49,2.49,0,0,0-.29-2.63Z"/><path class="cls-68" d="M482.86,536.47a4.09,4.09,0,0,1,.08-2.7c.05-.13.14-.3.25-.34.83-.3,1.66-.57,2.65-.9a2.45,2.45,0,0,0,.08,2.67l-2.84,1.85C483,536.84,482.93,536.67,482.86,536.47Z"/><path class="cls-75" d="M411.87,547.18a2.2,2.2,0,0,1,1.76-1.83,2.47,2.47,0,0,1,2.4.68,2.6,2.6,0,0,0-1.28,3.29c-.64.31-.73.28-1-.29a2.75,2.75,0,0,0-1.53-1.5A1.41,1.41,0,0,1,411.87,547.18Z"/><path class="cls-74" d="M415.37,544.27a2.19,2.19,0,0,1,1.8-2,2.51,2.51,0,0,1,2.48.79l-.53.17a2.65,2.65,0,0,0-1.88,2c-.13.63-.5.73-1,.29S415.25,545,415.37,544.27Z"/><path class="cls-75" d="M429.76,550.31a2.45,2.45,0,0,1,3.49.25,2.89,2.89,0,0,1,.48,1.07.65.65,0,0,1-.24.53c-.48.36-1,.63-1,1.39,0,.11-.32.24-.6.44a2.77,2.77,0,0,0-2.39-3.37A3,3,0,0,1,429.76,550.31Z"/><path class="cls-65" d="M446.77,521.06l-.41.33-.13,0,.72-4.68.15,0,2.22,2.75Z"/><path class="cls-74" d="M419.67,549.29a3.28,3.28,0,0,1,.6-.82,1.1,1.1,0,0,1,1.27-.2,10,10,0,0,0,1.8.49,6.89,6.89,0,0,1-.37,1.51c-.14.31-.55.5-.87.77a3.16,3.16,0,0,0-2.52-1.25C419.61,549.61,419.63,549.47,419.67,549.29Z"/><path class="cls-68" d="M481.57,534.05l.83-.33a1.1,1.1,0,0,1,0,.26,4.48,4.48,0,0,0,.15,3,.41.41,0,0,1-.17.58c-.45.29-.87.61-1.38,1a7.47,7.47,0,0,0-.55-3.35.58.58,0,0,1,.36-.78C481.06,534.31,481.3,534.18,481.57,534.05Z"/><path class="cls-65" d="M450,516.28c-.69-.53-1.36-1-2-1.53-.24-.17-.33-.33-.2-.62.42-1,.81-2,1.21-2.95l.18,0,1.11,5.21Z"/><path class="cls-68" d="M418.5,534.28c-1-.43-1-.43-.94-1.48,0-.17,0-.33,0-.57a21.38,21.38,0,0,1,2.17.31c.21,0,.36.41.5.65a1.68,1.68,0,0,1,0,1.85Z"/><path class="cls-68" d="M486.74,534.7l-.41.21a2.1,2.1,0,0,1,.05-2.45.45.45,0,0,1,.17-.11l2.05-.6c.09.49.2.92.24,1.36,0,.13-.13.33-.25.42C488,533.93,487.38,534.3,486.74,534.7Z"/><path class="cls-76" d="M424.1,533.61c0-.12-.06-.19-.12-.4.7.2,1.33.34,1.92.56.33.12.54,1.1.37,1.42a1.69,1.69,0,0,0-.19.41c-.18,1-.88,1.18-1.78,1.17A5.2,5.2,0,0,0,424.1,533.61Z"/><path class="cls-60" d="M470.09,516.43l-1.91,2.66-.09,0,1.5-5.76h.14c.26.78.56,1.55.76,2.35C470.54,515.86,470.25,516.15,470.09,516.43Z"/><path class="cls-68" d="M491.86,534.18a.71.71,0,0,1-.38,0l-1.86-.74,3.41-2.4.09,0C492.71,532.11,492.29,533.13,491.86,534.18Z"/><path class="cls-68" d="M414.61,534.94,413,532.29l.06-.07,3.68,1.83c-.63.37-1.21.73-1.81,1.06C414.9,535.14,414.75,535,414.61,534.94Z"/><path class="cls-75" d="M425.73,545.88c-.05-.36.08-.49.39-.41a2.28,2.28,0,0,1,1.53,1.19c.25.47-.29.64-.42,1,0,.08-.3.08-.46.06-.46,0-.92-.12-1.33-.17C425.54,547,425.64,546.47,425.73,545.88Z"/><path class="cls-76" d="M414,532.15l-1-.56,0-.11,2,.35c.58.1,1.16.16,1.73.28a.54.54,0,0,1,.33.36,9.27,9.27,0,0,1,0,1.21Z"/><path class="cls-76" d="M493.18,530.28l-3.84,2.84c-.1-.52-.2-.89-.24-1.26a.45.45,0,0,1,.26-.34c1.24-.42,2.5-.83,3.79-1.24Z"/><path class="cls-76" d="M477.41,524.86l-1.88,4.59c-.08.2-.16.41-.25.6-.35.75-.16.74-1.16.43,1.07-1.89,2.14-3.75,3.24-5.62Z"/><path class="cls-60" d="M494.76,548.45c-.26.21-.5.39-.77.59l-.67-1.8,3-.38.06.09Z"/><path class="cls-77" d="M495.58,552.67h-2l.52-1.81a5.48,5.48,0,0,1,2.22,1.81Z"/><path class="cls-78" d="M490.85,542.27l-.58,1.45-.9-.65,1.46-.76Z"/><path class="cls-67" d="M435.56,528c-.11-.49-.2-1-.29-1.44l.14,0c.13.39.27.78.37,1.17C435.8,527.8,435.66,527.92,435.56,528Z"/><path class="cls-68" d="M457.18,508.09a.12.12,0,0,1-.08,0s0,0,0,0S457.15,508.06,457.18,508.09Z"/><path class="cls-68" d="M448.85,507.36l-.07-.06,0,0s0,0,0,.07S448.85,507.36,448.85,507.36Z"/><path class="cls-76" d="M477.39,524.84a.5.5,0,0,1,.05-.13.23.23,0,0,1,0,.14S477.39,524.85,477.39,524.84Z"/><path class="cls-68" d="M460.61,513v0Z"/><path class="cls-68" d="M460.61,513a.11.11,0,0,1-.08.08.07.07,0,0,1-.06,0,.27.27,0,0,1,.12,0Z"/><path class="cls-78" d="M490.85,542.28l.07.06s0,0-.06,0Z"/><path class="cls-68" d="M478.7,519s0,0,.06-.06a.26.26,0,0,1,0,.09S478.71,519,478.7,519Z"/><path class="cls-68" d="M434.87,529.08h0Z"/><path class="cls-60" d="M501.59,540.91l0,0s0,0,0,0S501.59,540.92,501.59,540.91Z"/><path class="cls-68" d="M460.38,513.14s0-.06.07-.09,0,0,.05,0a.11.11,0,0,1-.05.12S460.41,513.18,460.38,513.14Z"/><path class="cls-76" d="M493.19,530.29v0S493.19,530.28,493.19,530.29Z"/><path class="cls-68" d="M434.87,529.07a.64.64,0,0,1-.06.11s-.06,0-.07,0a.13.13,0,0,1,.11-.07Z"/><path class="cls-79" d="M439.76,530c.36.41.69.8,1.08,1.26l-.31.33c-.43-.49-.8-.88-1.15-1.3a.37.37,0,0,1,0-.29A.85.85,0,0,1,439.76,530Z"/></g><g id="Maiz"><path class="cls-80" d="M471.61,520.6c.12-.42.41-.5.71-.35a3.17,3.17,0,0,1,.84.61.56.56,0,0,1,0,.81.54.54,0,0,1-.79.13C472,521.52,471.5,521.26,471.61,520.6Z"/><path class="cls-81" d="M472.82,519.89c-.37-.3-.63-.62-.45-1.1.1-.28.29-.44.58-.29a3.56,3.56,0,0,1,.87.55.59.59,0,0,1,.07.89.57.57,0,0,1-.83.11Z"/><path class="cls-81" d="M471.58,519.61c-.42.33-.72.29-1.2-.15a.83.83,0,0,1-.26-1.11c.05-.08.17-.21.21-.19a5.44,5.44,0,0,1,1.17.55A.56.56,0,0,1,471.58,519.61Z"/><path class="cls-82" d="M470.78,517.1c.18-.67.45-.78,1-.44a1.64,1.64,0,0,1,.64.61.85.85,0,0,1-.15.73.7.7,0,0,1-.64.1A1.24,1.24,0,0,1,470.78,517.1Z"/><path class="cls-82" d="M468.46,530c-.27-.22-.59-.38-.71-.64a1.2,1.2,0,0,1,.05-.87c0-.09.49-.09.7,0a1.55,1.55,0,0,1,.68.56.88.88,0,0,1,0,.71A.49.49,0,0,1,468.46,530Z"/><path class="cls-82" d="M464.61,530.23c.19-.56.35-.66.8-.43a2.85,2.85,0,0,1,.78.6.56.56,0,0,1,0,.81.54.54,0,0,1-.76.11C465,531.07,464.58,530.83,464.61,530.23Z"/><path class="cls-82" d="M470,519.94a5.47,5.47,0,0,1,.74.55.58.58,0,0,1,0,.85.54.54,0,0,1-.83.09,2,2,0,0,1-.63-.61,1.07,1.07,0,0,1,.06-.78C469.45,519.93,469.79,520,470,519.94Z"/><path class="cls-82" d="M472.09,522.22c.14.15.32.28.33.41a1,1,0,0,1-.17.7.64.64,0,0,1-.63.1,1.56,1.56,0,0,1-.73-.63,1,1,0,0,1,.05-.82c.07-.11.46-.07.7,0S471.92,522.11,472.09,522.22Z"/><path class="cls-82" d="M466.87,525.09c.14-.49.45-.55.82-.34a2.19,2.19,0,0,1,.75.62,1,1,0,0,1,0,.76c-.14.29-.45.31-.73.14C467.23,526,466.81,525.74,466.87,525.09Z"/><path class="cls-82" d="M465.35,528.9c.06-.31.06-.72.24-.82a.92.92,0,0,1,.79.18,1.65,1.65,0,0,1,.63.88c.08.42-.5.72-.88.49A4.43,4.43,0,0,1,465.35,528.9Z"/><path class="cls-80" d="M470.1,527.47a.58.58,0,0,1-.29.86,1,1,0,0,1-.75-.15c-.39-.24-.73-.56-.57-1.1.1-.32.32-.51.64-.33A7.83,7.83,0,0,1,470.1,527.47Z"/><path class="cls-82" d="M467.38,526.73a2.71,2.71,0,0,1,.38.49.64.64,0,0,1-.56.85,1.51,1.51,0,0,1-1.13-1c-.06-.53.31-.83.8-.63A3.54,3.54,0,0,1,467.38,526.73Z"/><path class="cls-80" d="M473.18,517c.41-.3,1-.13,1.41.4a.61.61,0,0,1,0,1,.58.58,0,0,1-.34.15A1.19,1.19,0,0,1,473.18,517Z"/><path class="cls-83" d="M468.54,521.76c.19-.1.43-.28.55-.22a3.57,3.57,0,0,1,1,.66c.26.26.16.58-.09.84s-.48.19-.73,0C468.83,522.7,468.23,522.51,468.54,521.76Z"/><path class="cls-83" d="M469.28,526a1.53,1.53,0,0,1-.09-.61c.08-.44.43-.55.79-.29.21.15.42.32.64.47a.53.53,0,0,1,.2.74c-.15.29-.4.51-.74.33A5,5,0,0,1,469.28,526Z"/><path class="cls-84" d="M471.58,524.16c.54.66-.24.75-.41,1.14a9.88,9.88,0,0,1-.92-.65.66.66,0,0,1-.09-.91c.18-.32.46-.22.7-.1A4.64,4.64,0,0,1,471.58,524.16Z"/><path class="cls-80" d="M468.1,524.4c-.62-.61-.63-.9-.06-1.29l.12-.09c.35-.09,1.28.84,1.19,1.19C469.21,524.76,468.77,524.84,468.1,524.4Z"/><path class="cls-81" d="M471.92,528.31c-.1.11-.17.24-.24.24-.35,0-.93-.55-.92-.89s.17-.71.28-.71a2.09,2.09,0,0,1,.91.26c.27.12.24.35.13.59S472,528.12,471.92,528.31Z"/><path class="cls-82" d="M470.47,530c-.17-.16-.39-.29-.42-.45a1.19,1.19,0,0,1,.1-.77.66.66,0,0,1,.61-.07c.93.46.89.55.18,1.49Z"/><path class="cls-82" d="M472.15,515.09c.67,0,1.19.41,1,.89a1,1,0,0,1-.58.56c-.31.07-.77-.46-.73-.8A1.88,1.88,0,0,1,472.15,515.09Z"/><path class="cls-81" d="M474.13,515.36a3.69,3.69,0,0,1,.87.59.62.62,0,0,1-.09.56.68.68,0,0,1-.55.08,1.17,1.17,0,0,1-.47-.36C473.59,515.88,473.67,515.6,474.13,515.36Z"/><path class="cls-81" d="M471.64,526.28c-.37-.61.17-.76.44-1,.72.52.73.57.24,1.58C472.09,526.65,471.88,526.48,471.64,526.28Z"/><path class="cls-81" d="M473.18,523.76l.35.23-.52,1c-.48-.12-.78-.31-.66-.86S472.77,523.69,473.18,523.76Z"/><path class="cls-81" d="M473.12,522.66a2.38,2.38,0,0,1,.46-.56c.06,0,.29.12.42.22a.35.35,0,0,1,.08.28c-.07.29-.16.57-.25.87A.76.76,0,0,1,473.12,522.66Z"/><path class="cls-85" d="M466.92,530.45c.12-.44.41-.46.72-.33a7.32,7.32,0,0,1,.78.47l-1.51.52C466.91,530.87,466.91,530.68,466.92,530.45Z"/><path class="cls-81" d="M465,532.21l-.59.44-.08-1.34,1,.61Z"/><path class="cls-81" d="M467.16,522.45c.14-.32.26-.6.45-1,.12.41.3.71.24,1s-.36.42-.7.64C467.15,522.84,467.15,522.67,467.16,522.45Z"/><path class="cls-85" d="M474,521.34a.74.74,0,0,1,.38-1c.47.43.07.84,0,1.38A4,4,0,0,1,474,521.34Z"/><path class="cls-86" d="M468.57,520.41c.14.48-.13.71-.45.92-.41-.38-.41-.46.1-1.25A3.53,3.53,0,0,1,468.57,520.41Z"/><path class="cls-86" d="M469,518.85l.3-.37c.24.37.27.67,0,.95s-.43.45-.79.17C468.65,519.35,468.8,519.11,469,518.85Z"/><path class="cls-86" d="M465.85,526.16c-.19.08-.37.16-.23-.14s.29-.67.45-1C466.45,525.56,466.42,525.68,465.85,526.16Z"/><path class="cls-86" d="M467,524c-.19.21-.37.39-.54.56l-.13-.1.45-1h.15C466.94,523.6,467,523.77,467,524Z"/><path class="cls-86" d="M464.66,528.58c.11.54.06.64-.6,1.06.21-.46.36-.81.52-1.15h0Z"/><path class="cls-86" d="M465.05,527.28l.23-.48c.31.43.21.69-.47,1.1Z"/></g></g></svg>